Coordinates
version=1
nRows=9
nColumns=26
inDegrees=yes

Units are S.I. units (second, meters, Newtons, ...)
If the header above contains a line with 'inDegrees', this indicates whether rotational values are in degrees (yes) or radians (no).

endheader
time	pelvis_tilt	pelvis_list	pelvis_rotation	pelvis_tx	pelvis_ty	pelvis_tz	hip_flexion_r	hip_adduction_r	hip_rotation_r	knee_angle_r	knee_angle_r_beta	hip_flexion_l	hip_adduction_l	hip_rotation_l	knee_angle_l	knee_angle_l_beta	lumbar_extension	lumbar_bending	lumbar_rotation	ankle_angle_r	subtalar_angle_r	mtp_angle_r	ankle_angle_l	subtalar_angle_l	mtp_angle_l
      0.12000000	     -7.64779722	      1.27879799	     26.07735468	     -1.19257006	      0.85672189	      0.28689073	     35.28799109	    -14.56749512	    -21.76343465	     12.86980615	      0.22462049	     -2.15964120	      4.33372875	     25.01461318	     19.79975820	      0.34557097	     -4.78723032	     -8.47090285	    -13.82433857	      6.68565255	      0.17322606	      0.00000000	     22.70353775	      7.04568137	      0.00000000
      0.13000000	     -7.40321352	      1.03183283	     26.27788985	     -1.17962149	      0.85603485	      0.28696365	     34.93138574	    -14.01129793	    -21.03360552	     13.18861224	      0.23018471	     -2.64670340	      3.66973729	     25.30375271	     20.63700011	      0.36018360	     -4.68431543	     -8.04453767	    -13.91771307	      6.97869766	      0.01715522	      0.00000000	     22.13137659	      7.05717293	      0.00000000
      0.14000000	     -6.93733980	      0.57587732	     26.44541182	     -1.16639505	      0.85555185	      0.28717505	     34.21393667	    -12.90299121	    -19.55777164	     13.16769996	      0.22981972	     -3.03077758	      2.67449769	     25.05752069	     21.93177538	      0.38278169	     -4.70782409	     -7.28321086	    -14.17232183	      5.97799029	     -2.37982752	      0.00000000	     21.99071930	      7.48352048	      0.00000000
      0.15000000	     -6.65896233	      0.13079035	     26.58358807	     -1.15301399	      0.85490429	      0.28739135	     33.89468013	    -11.98916268	    -18.28872232	     13.84708942	      0.24167730	     -3.17885925	      1.79386594	     24.91140778	     23.29311922	      0.40654162	     -4.47778065	     -6.61900940	    -14.35688093	      4.95343551	     -4.35375492	      0.00000000	     21.49619166	      7.98561424	      0.00000000
      0.16000000	     -6.35566849	     -0.35369026	     26.55511161	     -1.13931098	      0.85431267	      0.28783300	     33.65636988	    -10.93582414	    -16.98831340	     14.75747517	      0.25756653	     -3.26826072	      0.86255446	     24.56934163	     24.76780860	      0.43227981	     -4.21566914	     -5.90818992	    -14.37303351	      3.49460271	     -6.66808869	      0.00000000	     20.82884446	      8.54878017	      0.00000000
      0.17000000	     -6.05893522	     -0.89992216	     26.44726798	     -1.12537843	      0.85377619	      0.28835240	     33.49532136	     -9.80384034	    -15.80606412	     15.79531471	      0.27568025	     -3.22137494	     -0.11570016	     24.07618480	     26.41453593	      0.46102062	     -3.87010023	     -5.12350945	    -14.30989042	      1.71889814	     -9.14399291	      0.00000000	     19.92221801	      9.21473961	      0.00000000
      0.18000000	     -5.73809966	     -1.45391321	     26.21571384	     -1.11129933	      0.85337386	      0.28901201	     33.35648901	     -8.61610299	    -14.73014244	     16.90016341	      0.29496350	     -3.07534134	     -1.10538778	     23.35996142	     28.22962487	      0.49269990	     -3.54083174	     -4.30196043	    -14.16049253	     -0.17284327	    -11.59231251	      0.00000000	     18.74404638	      9.99950248	      0.00000000
      0.19000000	     -5.42943306	     -2.09034756	     25.92844927	     -1.09717689	      0.85303974	      0.28972214	     33.27906957	     -7.40043910	    -14.01079930	     18.08220646	      0.31559404	     -2.70820338	     -2.14717105	     22.53168063	     30.29342112	      0.52871994	     -3.15239818	     -3.37596383	    -13.96230294	     -1.75912486	    -13.53144790	      0.00000000	     17.25568052	     10.80521220	      0.00000000
      0.20000000	     -4.84305847	     -2.53202784	     25.63968508	     -1.08303676	      0.85334580	      0.29029640	     32.84036830	     -6.37719554	    -13.80855816	     19.45057445	      0.33947657	     -2.71767076	     -3.00481625	     22.12211961	     32.24938313	      0.56285792	     -3.20038314	     -2.48708871	    -13.82589681	     -2.23011882	    -14.17067749	      0.00000000	     14.97854046	     10.97081131	      0.00000000
